HIERARCHY
ROOT hips
{
  OFFSET 0 10.6860622 2.3727825e-15
  CHANNELS 6 Xposition Yposition Zposition Yrotation Xrotation Zrotation
  JOINT leftUpperLeg
  {
    OFFSET 0.6642549969 -0.9402397400000004 0
    CHANNELS 3 Yrotation Xrotation Zrotation
    JOINT leftLowerLeg
    {
      OFFSET 0 -3.997221335632195 0
      CHANNELS 3 Yrotation Xrotation Zrotation
      JOINT leftFoot
      {
        OFFSET -0.13777839790000004 -4.6145792000000005 -0.22186036399999998
        CHANNELS 3 Yrotation Xrotation Zrotation
        JOINT leftToes
        {
          OFFSET -0.03777410834999995 -0.9130806927000008 0.85230013
          CHANNELS 3 Yrotation Xrotation Zrotation
          End Site
          {
            OFFSET -0.03777410834999995 -0.9130806927000008 0.85230013
          }
        }
      }
    }
  }
  JOINT rightUpperLeg
  {
    OFFSET -0.6642778626 -0.9402397400000004 0
    CHANNELS 3 Yrotation Xrotation Zrotation
    JOINT rightLowerLeg
    {
      OFFSET 0 -3.997221452859387 0
      CHANNELS 3 Yrotation Xrotation Zrotation
      JOINT rightFoot
      {
        OFFSET 0.1377926176 -4.6145792000000005 -0.22185782299999995
        CHANNELS 3 Yrotation Xrotation Zrotation
        JOINT rightToes
        {
          OFFSET 0.037780746850000047 -0.9130806927000008 0.85230167
          CHANNELS 3 Yrotation Xrotation Zrotation
          End Site
          {
            OFFSET 0.037780746850000047 -0.9130806927000008 0.85230167
          }
        }
      }
    }
  }
  JOINT spine
  {
    OFFSET 0 0.13988381660000015 0
    CHANNELS 3 Yrotation Xrotation Zrotation
    JOINT chest
    {
      OFFSET 0 0.6191039003973773 0
      CHANNELS 3 Yrotation Xrotation Zrotation
      JOINT upperChest
      {
        OFFSET 0 0.9855186130586943 0
        CHANNELS 3 Yrotation Xrotation Zrotation
        JOINT leftShoulder
        {
          OFFSET 0.1807663869 1.5087829790000005 0
          CHANNELS 3 Yrotation Xrotation Zrotation
          JOINT leftUpperArm
          {
            OFFSET 0.5985063006419806 0 0
            CHANNELS 3 Yrotation Xrotation Zrotation
            JOINT leftLowerArm
            {
              OFFSET 2.2993332369501065 0 0
              CHANNELS 3 Yrotation Xrotation Zrotation
              JOINT leftHand
              {
                OFFSET 2.395047042602395 0 0
                CHANNELS 3 Yrotation Xrotation Zrotation
                JOINT leftIndexProximal
                {
                  OFFSET 0.5766295810000004 0.04556643899499946 0.17265095988184
                  CHANNELS 3 Yrotation Xrotation Zrotation
                  JOINT leftIndexIntermediate
                  {
                    OFFSET 0.2957229000000008 -0.019352197700001517 -0.007932640616999987
                    CHANNELS 3 Yrotation Xrotation Zrotation
                    JOINT leftIndexDistal
                    {
                      OFFSET 0.19008243099999922 -0.012484908149998475 -0.002786250786000012
                      CHANNELS 3 Yrotation Xrotation Zrotation
                      End Site
                      {
                        OFFSET 0.19008243099999922 -0.012484908149998475 -0.002786250786000012
                      }
                    }
                  }
                }
                JOINT leftMiddleProximal
                {
                  OFFSET 0.5834975091000001 0.0524350405149987 0.02204081888183999
                  CHANNELS 3 Yrotation Xrotation Zrotation
                  JOINT leftMiddleIntermediate
                  {
                    OFFSET 0.33880573540000003 -0.019871473270000717 -0.00000971183179999946
                    CHANNELS 3 Yrotation Xrotation Zrotation
                    JOINT leftMiddleDistal
                    {
                      OFFSET 0.20676022730000088 -0.012221336379999448 0.0001471936708000235
                      CHANNELS 3 Yrotation Xrotation Zrotation
                      End Site
                      {
                        OFFSET 0.20676022730000088 -0.012221336379999448 0.0001471936708000235
                      }
                    }
                  }
                }
                JOINT leftLittleProximal
                {
                  OFFSET 0.5344154683999995 -0.012880921405001189 -0.24414037221816004
                  CHANNELS 3 Yrotation Xrotation Zrotation
                  JOINT leftLittleIntermediate
                  {
                    OFFSET 0.21758961730000093 -0.011650919939999227 0.011893592810000034
                    CHANNELS 3 Yrotation Xrotation Zrotation
                    JOINT leftLittleDistal
                    {
                      OFFSET 0.1475273964999999 -0.008152365682999818 0.006001092492999946
                      CHANNELS 3 Yrotation Xrotation Zrotation
                      End Site
                      {
                        OFFSET 0.1475273964999999 -0.008152365682999818 0.006001092492999946
                      }
                    }
                  }
                }
                JOINT leftRingProximal
                {
                  OFFSET 0.5799399463000003 0.026911854694997794 -0.12150566991816003
                  CHANNELS 3 Yrotation Xrotation Zrotation
                  JOINT leftRingIntermediate
                  {
                    OFFSET 0.26167887460000006 -0.013480186499999602 0.010996293000000053
                    CHANNELS 3 Yrotation Xrotation Zrotation
                    JOINT leftRingDistal
                    {
                      OFFSET 0.17667108799999987 -0.008990287899999228 0.0055541023999999065
                      CHANNELS 3 Yrotation Xrotation Zrotation
                      End Site
                      {
                        OFFSET 0.17667108799999987 -0.008990287899999228 0.0055541023999999065
                      }
                    }
                  }
                }
                JOINT leftThumbProximal
                {
                  OFFSET 0.11018806699999972 -0.09448718900500053 0.17047963138184
                  CHANNELS 3 Yrotation Xrotation Zrotation
                  JOINT leftThumbIntermediate
                  {
                    OFFSET 0.31062601459999983 -0.08126270900000132 0.15443142000000007
                    CHANNELS 3 Yrotation Xrotation Zrotation
                    JOINT leftThumbDistal
                    {
                      OFFSET 0.21627175790000086 -0.08833193599999878 0.018771167799999988
                      CHANNELS 3 Yrotation Xrotation Zrotation
                      End Site
                      {
                        OFFSET 0.21627175790000086 -0.08833193599999878 0.018771167799999988
                      }
                    }
                  }
                }
              }
            }
          }
        }
        JOINT neck
        {
          OFFSET 0 1.5463305265074576 0
          CHANNELS 3 Yrotation Xrotation Zrotation
          JOINT head
          {
            OFFSET 0 0.8456443600000344 0
            CHANNELS 3 Yrotation Xrotation Zrotation
            JOINT leftEye
            {
              OFFSET 0.30408573140000006 0.5104519199999995 0.1276382305
              CHANNELS 3 Yrotation Xrotation Zrotation
              End Site
              {
                OFFSET 0.30408573140000006 0.5104519199999995 0.1276382305
              }
            }
            JOINT rightEye
            {
              OFFSET -0.30409491089999996 0.5104519199999995 0.1276379445
              CHANNELS 3 Yrotation Xrotation Zrotation
              End Site
              {
                OFFSET -0.30409491089999996 0.5104519199999995 0.1276379445
              }
            }
            JOINT jaw
            {
              OFFSET -3.155239131000001e-7 -0.11984121820000082 0.60178107
              CHANNELS 3 Yrotation Xrotation Zrotation
              End Site
              {
                OFFSET -3.155239131000001e-7 -0.11984121820000082 0.60178107
              }
            }
          }
        }
        JOINT rightShoulder
        {
          OFFSET -0.1807303465 1.5087829790000005 0
          CHANNELS 3 Yrotation Xrotation Zrotation
          JOINT rightUpperArm
          {
            OFFSET -0.5985063796536958 0 0
            CHANNELS 3 Yrotation Xrotation Zrotation
            JOINT rightLowerArm
            {
              OFFSET -2.2993322059002854 0 0
              CHANNELS 3 Yrotation Xrotation Zrotation
              JOINT rightHand
              {
                OFFSET -2.395045314457259 0 0
                CHANNELS 3 Yrotation Xrotation Zrotation
                JOINT rightIndexProximal
                {
                  OFFSET -0.5764487688300002 0.0441371204405987 0.17361932004999997
                  CHANNELS 3 Yrotation Xrotation Zrotation
                  JOINT rightIndexIntermediate
                  {
                    OFFSET -0.29573011380000047 -0.01934826376999843 -0.007698921482999974
                    CHANNELS 3 Yrotation Xrotation Zrotation
                    JOINT rightIndexDistal
                    {
                      OFFSET -0.19008373999999884 -0.012503266380000655 -0.0026365778999999897
                      CHANNELS 3 Yrotation Xrotation Zrotation
                      End Site
                      {
                        OFFSET -0.19008373999999884 -0.012503266380000655 -0.0026365778999999897
                      }
                    }
                  }
                }
                JOINT rightMiddleProximal
                {
                  OFFSET -0.5834852037300005 0.05211639405060153 0.02307162440000001
                  CHANNELS 3 Yrotation Xrotation Zrotation
                  JOINT rightMiddleIntermediate
                  {
                    OFFSET -0.33880114510000003 -0.019952774050000954 0.0002455003561999819
                    CHANNELS 3 Yrotation Xrotation Zrotation
                    JOINT rightMiddleDistal
                    {
                      OFFSET -0.20675694929999955 -0.012273788999999091 0.00030209124000002766
                      CHANNELS 3 Yrotation Xrotation Zrotation
                      End Site
                      {
                        OFFSET -0.20675694929999955 -0.012273788999999091 0.00030209124000002766
                      }
                    }
                  }
                }
                JOINT rightLittleProximal
                {
                  OFFSET -0.5346811737299992 -0.011214256288399227 -0.24363941305000003
                  CHANNELS 3 Yrotation Xrotation Zrotation
                  JOINT rightLittleIntermediate
                  {
                    OFFSET -0.21757715980000092 -0.011771559690000988 0.01201554387
                    CHANNELS 3 Yrotation Xrotation Zrotation
                    JOINT rightLittleDistal
                    {
                      OFFSET -0.1475201849000004 -0.00822055339600003 0.006082065407000015
                      CHANNELS 3 Yrotation Xrotation Zrotation
                      End Site
                      {
                        OFFSET -0.1475201849000004 -0.00822055339600003 0.006082065407000015
                      }
                    }
                  }
                }
                JOINT rightRingProximal
                {
                  OFFSET -0.5800810755299999 0.027657985680600072 -0.12066365025000003
                  CHANNELS 3 Yrotation Xrotation Zrotation
                  JOINT rightRingIntermediate
                  {
                    OFFSET -0.26166445029999974 -0.013623118409999302 0.011164098990000045
                    CHANNELS 3 Yrotation Xrotation Zrotation
                    JOINT rightRingDistal
                    {
                      OFFSET -0.17666387530000027 -0.009072900100000503 0.005668185599999959
                      CHANNELS 3 Yrotation Xrotation Zrotation
                      End Site
                      {
                        OFFSET -0.17666387530000027 -0.009072900100000503 0.005668185599999959
                      }
                    }
                  }
                }
                JOINT rightThumbProximal
                {
                  OFFSET -0.10997596379000074 -0.09577489355940072 0.16989765924999997
                  CHANNELS 3 Yrotation Xrotation Zrotation
                  JOINT rightThumbIntermediate
                  {
                    OFFSET -0.31036620999999986 -0.08229339117999834 0.15440884469999996
                    CHANNELS 3 Yrotation Xrotation Zrotation
                    JOINT rightThumbDistal
                    {
                      OFFSET -0.21631306399999906 -0.08825326400000111 0.018656797720000014
                      CHANNELS 3 Yrotation Xrotation Zrotation
                      End Site
                      {
                        OFFSET -0.21631306399999906 -0.08825326400000111 0.018656797720000014
                      }
                    }
                  }
                }
              }
            }
          }
        }
      }
    }
  }
}
MOTION
Frames: 5
Frame Time: 0.03333333333333333
0 -10.336035972809329 0 0 -90 0 -10.91839992230421 -1.2730365308402778 -7.621240919392299 0.24497922371736033 6.644808671268858 7.605764736688744 13.866054257215545 14.085970556049318 3.5936923092685604 0 0 0 7.793392209201641 -1.0964260436784263 7.691972922737466 -0.1462713964585656 6.65003045062639 -8.268708843573886 -10.78685342565688 14.518580187627386 -3.185685506745359 0 0 0 -0.07358840600519954 0.20277218453365817 -0.08566418823189925 -0.8277565987673815 25.661438556942816 -0.6634234569073725 0 0 0 -0.47612373618571524 4.751814753106872 -9.202053008139824 -15.72306753765465 -20.606795855691278 -61.43062623247678 -61.543743754465375 -9.971992016629462 -4.772208312105574 -9.374570888139452 20.388626768519774 -13.793772482604842 0 0 0 0 0 0 0 0 0 0 0 0 0 0 0 0 0 0 0 0 0 0 0 0 0 0 0 0 0 0 0 0 0 0 0 0 0 0 0 0 0 0 0 0 0 -0.5778403818603319 9.845653651105764 -10.38407430940951 6.284610284222759 -11.472071607731776 6.324809633904502 0 0 0 0 0 0 0 0 0 1.7363423028275318 5.445986454947894 10.845541765040409 15.839969966708209 -20.688948398096517 61.07609020311268 60.237396065512186 -9.948342063611513 3.0068844154060526 9.586069845191297 22.12919453542137 13.225431692805108 0 0 0 0 0 0 0 0 0 0 0 0 0 0 0 0 0 0 0 0 0 0 0 0 0 0 0 0 0 0 0 0 0 0 0 0 0 0 0 0 0 0 0 0 0
0 -10.336035972809329 0 0 -90 0 -10.91839992230421 -1.2730365308402778 -7.621240919392299 0.24497922371736033 6.644808671268858 7.605764736688744 13.866054257215545 14.085970556049318 3.5936923092685604 0 0 0 7.793392209201641 -1.0964260436784263 7.691972922737466 -0.1462713964585656 6.65003045062639 -8.268708843573886 -10.78685342565688 14.518580187627386 -3.185685506745359 0 0 0 -0.07357783719031774 0.9036537745389257 -0.08644221351966191 -0.8201906842389948 24.558368729002495 -0.6457528045311483 0 0 0 -0.3012271868243796 5.08048879069818 -9.16324372269941 -15.773604514317189 -20.624169350319786 -61.7148508897306 -61.543743754465375 -9.971992016629462 -4.772208312105574 -8.540501229090923 20.536955150119425 -13.735681775256175 0 0 0 0 0 0 0 0 0 0 0 0 0 0 0 0 0 0 0 0 0 0 0 0 0 0 0 0 0 0 0 0 0 0 0 0 0 0 0 0 0 0 0 0 0 -0.5809956781008658 9.942900294387673 -10.282238056402882 6.231811848031434 -11.265000074872972 6.2715281327952095 0 0 0 0 0 0 0 0 0 1.4364747967621514 5.691811944261 10.632277489857632 15.888662599684249 -20.689196632831706 61.3996563359071 60.40770012307292 -9.958273222781038 3.183773139921694 8.677145252915528 22.152898106841057 13.228232371695922 0 0 0 0 0 0 0 0 0 0 0 0 0 0 0 0 0 0 0 0 0 0 0 0 0 0 0 0 0 0 0 0 0 0 0 0 0 0 0 0 0 0 0 0 0
0 -10.336035972809329 0 0 -90 0 -10.918400760829742 -1.2730365308402778 -7.621240919392299 0.24497922371736033 6.644808671268858 7.605764736688744 13.866054257215545 14.085970556049318 3.5936923092685604 0 0 0 7.793392209201641 -1.0964260436784263 7.691972922737466 -0.1462713964585656 6.65003045062639 -8.268708843573886 -10.78685342565688 14.518580187627386 -3.185685506745359 0 0 0 -0.07357717860403526 1.2540686453265528 -0.08683118269759775 -0.8165714660293562 24.00693090989215 -0.6370357754175914 0 0 0 -0.21366293403852904 5.24477676492316 -9.143450460643963 -15.798843741354265 -20.63292891201546 -61.85694104076593 -61.543743754465375 -9.971992016629462 -4.772208312105574 -8.123148553969541 20.610814771044666 -13.705756404310634 0 0 0 0 0 0 0 0 0 0 0 0 0 0 0 0 0 0 0 0 0 0 0 0 0 0 0 0 0 0 0 0 0 0 0 0 0 0 0 0 0 0 0 0 0 -0.5825086706554637 9.991524914219102 -10.231308354080484 6.2053474811859815 -11.1614550889685 6.24482267406619 0 0 0 0 0 0 0 0 0 1.2861518340366862 5.814304274820168 10.525129974501375 15.913014826856179 -20.68942479011564 61.56142984716536 60.49283562433616 -9.963430055415925 3.27220858780028 8.222679970279566 22.164756920997448 13.229480031811802 0 0 0 0 0 0 0 0 0 0 0 0 0 0 0 0 0 0 0 0 0 0 0 0 0 0 0 0 0 0 0 0 0 0 0 0 0 0 0 0 0 0 0 0 0
0 -10.336035972809329 0 0 -90 0 -10.918400760829742 -1.2730365308402778 -7.621240919392299 0.24497922371736033 6.644808671268858 7.605764736688744 13.866054257215545 14.085970556049318 3.5936923092685604 0 0 0 7.793392209201641 -1.0964260436784263 7.691972922737466 -0.1462713964585656 6.65003045062639 -8.268708843573886 -10.78685342565688 14.518580187627386 -3.185685506745359 0 0 0 -0.07357819406077908 1.604458479348907 -0.087221013442985 -0.8130601655430707 23.455602016824276 -0.628396045555487 0 0 0 -0.12602056905915565 5.409032096041627 -9.123404480635033 -15.824054446877291 -20.64176743951179 -61.999077846713476 -61.543743754465375 -9.971992016629462 -4.772208312105574 -7.705596055742776 20.68445833990834 -13.67524499374858 0 0 0 0 0 0 0 0 0 0 0 0 0 0 0 0 0 0 0 0 0 0 0 0 0 0 0 0 0 0 0 0 0 0 0 0 0 0 0 0 0 0 0 0 0 -0.5839774733609038 10.040154203956964 -10.180373465543457 6.1788382898623535 -11.05790786459556 6.218072324673264 0 0 0 0 0 0 0 0 0 1.1355714385202684 5.93651168670479 10.41764007014016 15.937359098449779 -20.689700404572232 61.7231932326099 60.57795211569075 -9.96871699873333 3.3606343371636362 7.768238361979581 22.176629642814092 13.230626644528 0 0 0 0 0 0 0 0 0 0 0 0 0 0 0 0 0 0 0 0 0 0 0 0 0 0 0 0 0 0 0 0 0 0 0 0 0 0 0 0 0 0 0 0 0
0 -10.336035972809329 0 0 -90 0 -10.91839992230421 -1.2730365308402778 -7.621240919392299 0.24497922371736033 6.644808671268858 7.605764736688744 13.866054257215545 14.085970556049318 3.5936923092685604 0 0 0 7.793392209201641 -1.0964260436784263 7.691972922737466 -0.14627128901432537 6.650029591069668 -8.268708843573886 -10.78685342565688 14.518580187627386 -3.185685506745359 0 0 0 -0.07358764119849223 2.305131047470707 -0.08799854990828256 -0.8063527922066694 22.353343904730522 -0.6113358255713474 0 0 0 0.0495041540835173 5.737433822323678 -9.082533116030698 -15.87441331355391 -20.65960480207362 -62.28331042218831 -61.543743754465375 -9.971992016629462 -4.772208312105574 -6.8699293696780055 20.831081934421174 -13.612472028291645 0 0 0 0 0 0 0 0 0 0 0 0 0 0 0 0 0 0 0 0 0 0 0 0 0 0 0 0 0 0 0 0 0 0 0 0 0 0 0 0 0 0 0 0 0 -0.5867845162184021 10.137421737863239 -10.07847943844148 6.125689602694284 -10.850806227518694 6.164444716628818 0 0 0 0 0 0 0 0 0 0.8336333513386603 6.180067209917502 10.201630912207893 15.986042950579195 -20.690470667496704 62.046743800758165 60.748193274829255 -9.979682109965564 3.5374649501931112 6.859467362226652 22.200387317305555 13.232612619827748 0 0 0 0 0 0 0 0 0 0 0 0 0 0 0 0 0 0 0 0 0 0 0 0 0 0 0 0 0 0 0 0 0 0 0 0 0 0 0 0 0 0 0 0 0
